PathFileType	4	(X/Y/Z)	C:/Users/opensim2020/Desktop/walking_exp_matlab/subject03_walking07_straight_03.trc	
DataRate	CameraRate	NumFrames	NumMarkers	Units	OrigDataRate	OrigDataStartFrame	OrigNumFrames	
100.00	100.00	5	46	mm	100.00	2318	306	
Frame#	Time	LFHD			RFHD			LBHD			RBHD			C7			T10			CLAV			STRN			RBAK			LSHO			LUPA			LELB			LFRM			LWRA			LWRB			LFIN			RSHO			RUPA			RELB			RFRM			RWRA			RWRB			RFIN			LASI			RASI			LPSI			RPSI			LTHI			LKNE			LTIB			LANK			LHEE			LTOE			RTHI			RKNE			RTIB			RANK			RHEE			RTOE			*39			*40			*41			*42			*43			*44			*45			
		X1	Y1	Z1	X2	Y2	Z2	X3	Y3	Z3	X4	Y4	Z4	X5	Y5	Z5	X6	Y6	Z6	X7	Y7	Z7	X8	Y8	Z8	X9	Y9	Z9	X10	Y10	Z10	X11	Y11	Z11	X12	Y12	Z12	X13	Y13	Z13	X14	Y14	Z14	X15	Y15	Z15	X16	Y16	Z16	X17	Y17	Z17	X18	Y18	Z18	X19	Y19	Z19	X20	Y20	Z20	X21	Y21	Z21	X22	Y22	Z22	X23	Y23	Z23	X24	Y24	Z24	X25	Y25	Z25	X26	Y26	Z26	X27	Y27	Z27	X28	Y28	Z28	X29	Y29	Z29	X30	Y30	Z30	X31	Y31	Z31	X32	Y32	Z32	X33	Y33	Z33	X34	Y34	Z34	X35	Y35	Z35	X36	Y36	Z36	X37	Y37	Z37	X38	Y38	Z38	X39	Y39	Z39	X40	Y40	Z40	X41	Y41	Z41	X42	Y42	Z42	X43	Y43	Z43	X44	Y44	Z44	X45	Y45	Z45	X46	Y46	Z46	

154	1.530	1335.53638	141.14484	1625.58130	1468.58264	142.71606	1635.97900	1345.02612	17.86399	1571.23352	1475.55554	23.99228	1581.48083	1400.81946	-1.23960	1422.24341	1406.11877	-39.42002	1110.12024	1410.86829	118.51275	1343.67188	1413.55469	159.67392	1178.19873	1498.85632	-62.12555	1251.00977	1252.08313	88.08758	1375.16455	1184.99475	77.36127	1175.81287	1174.01392	75.43573	1052.58228	1176.08057	93.11151	923.12653	1208.36682	100.09592	803.42987	1154.38086	82.74890	810.76392	1166.88135	84.90981	725.23883	1566.56702	66.37947	1372.78699	1645.84546	77.26191	1153.93262	1661.94409	100.89095	1044.06714	1664.96167	136.27434	911.56177	1629.55408	180.17384	821.88934	1673.03894	149.29497	812.17651	1662.25525	182.03125	744.67657	1299.24670	133.76855	948.47510	1537.65918	116.02606	939.96368	1338.19910	-31.89489	972.14465	1486.86536	-40.72210	970.95319	1258.71252	87.32399	647.64569	1302.54468	103.76131	471.19547	1301.43982	66.95416	279.50742	1345.85571	63.95753	69.86844	1380.76782	24.07003	34.84398	1375.31653	217.31923	34.76472	1581.61853	83.78661	642.17841	1564.90295	129.45074	466.78806	1558.73047	-14.28968	344.10654	1508.00146	-176.38660	206.23242	1448.92725	-222.44862	216.07301	1501.88330	-122.83982	72.67570				1384.29297	52.81997	1680.26270															 
155	1.540	1336.23010	150.71510	1625.88062	1468.93066	151.92325	1636.25464	1345.07092	27.40751	1571.41882	1475.62537	33.22361	1581.66394	1400.78625	8.14129	1422.59778	1405.67981	-29.97782	1110.33606	1410.95056	127.71741	1343.92615	1413.35974	168.87878	1178.48352	1497.97363	-53.27571	1251.06567	1252.19287	97.53138	1375.41699	1184.75415	90.26016	1176.16284	1173.71057	90.81089	1053.05347	1175.92029	110.85677	923.94745	1207.30908	120.23286	804.32001	1153.88672	103.03832	811.45056	1166.01733	107.87791	726.33734	1566.82434	75.29588	1372.54028	1645.64758	84.55064	1153.49170	1661.68872	107.56979	1043.33679	1664.73230	141.96669	910.63739	1629.24841	185.05179	820.52045	1672.82959	154.12883	811.12256	1662.01111	186.29474	743.45123	1298.10425	142.91693	948.84106	1537.01086	126.05148	941.13422	1338.26343	-22.92469	972.37079	1486.76868	-30.97866	971.42914	1259.46912	95.34598	647.93091	1303.08997	109.30790	471.11969	1301.64221	69.67741	279.72824	1346.19836	64.33138	70.11546	1381.09912	24.12889	35.28477	1375.43066	217.53867	34.69725	1580.38660	100.35923	643.20428	1564.51379	147.99376	469.24939	1558.53760	5.52583	345.48727	1508.47546	-154.11372	204.76685	1449.59009	-201.13316	212.75003	1503.56433	-96.57597	73.24910				1386.88257	66.14594	1683.53650															 
156	1.550	1336.58093	160.13812	1626.12329	1469.30481	161.12625	1636.41943	1345.16919	36.91261	1571.58179	1475.74463	42.44608	1581.76245	1400.85352	17.30760	1422.91699	1405.36365	-20.67886	1110.56885	1411.03479	136.83562	1344.14868	1413.01135	178.02031	1178.72449	1497.24585	-44.46634	1251.05994	1252.31482	106.79509	1375.76563	1184.77002	102.86755	1176.81262	1173.63354	106.48325	1053.61938	1175.94482	128.69202	925.06403	1207.58704	139.37907	805.99939	1153.40393	123.44672	812.59033	1165.23547	131.16054	727.86121	1566.99060	83.98921	1372.45630	1645.55676	91.82491	1153.13281	1661.38782	114.51292	1042.90686	1664.46204	147.49471	909.80267	1629.16248	189.95593	819.75122	1672.58398	158.74487	810.21149	1661.89844	190.48441	742.38599	1297.37634	151.69716	949.17126	1536.13306	136.08499	942.34576	1338.29907	-13.28273	972.52362	1486.85559	-21.13169	971.90930	1260.04504	103.57880	647.82208	1303.53174	114.91602	470.82520	1301.90247	72.55362	279.90863	1346.56995	64.47673	70.57166	1381.40808	24.33305	35.50045	1375.54333	217.64680	34.58216	1579.76770	115.86584	644.50671	1563.97668	166.31816	471.65594	1558.01709	25.88230	345.98178	1509.03235	-131.19754	202.07878	1450.38684	-179.09683	208.29922	1504.66565	-69.46301	72.93492				1384.46887	71.35387	1680.55481															 
157	1.560	1336.93213	169.66588	1626.33252	1469.78577	170.39430	1636.48279	1345.34912	46.41191	1571.73938	1475.95129	51.65612	1581.81604	1400.93384	26.40494	1423.05554	1405.15125	-11.48720	1110.70898	1411.14258	145.92590	1344.33716	1412.70215	187.07925	1178.92676	1496.69897	-35.59839	1251.11194	1252.49365	115.91010	1376.18713	1184.71680	115.30516	1177.58398	1173.55334	121.63084	1054.65979	1176.07007	146.49571	926.51477	1207.79553	158.79353	807.84711	1153.21777	144.00996	814.10242	1164.60425	154.59509	729.94312	1567.14575	92.68983	1372.42175	1645.54590	99.17313	1152.91760	1661.04724	121.28053	1042.47900	1664.20044	152.91595	909.11450	1628.91553	194.51152	818.61499	1672.36194	163.29568	809.40619	1661.86353	194.53610	741.41663	1296.24707	160.61215	949.40808	1535.08533	145.92296	943.35986	1338.61780	-4.31306	972.73602	1487.10364	-11.35077	972.38348	1260.51013	111.92737	647.55829	1303.93127	120.31168	470.49835	1302.02917	75.48830	280.06805	1346.73450	64.94539	70.58532	1381.55786	24.27002	35.85740	1375.60620	217.87964	34.57455	1579.59058	130.92824	645.89459	1563.26245	184.32617	474.03983	1557.61194	46.44080	345.68866	1509.53564	-107.72762	198.35730	1451.24622	-156.43779	202.71904	1505.40613	-41.40956	71.85382				1385.04944	80.87327	1680.71191															 
158	1.570	1337.59424	179.21803	1626.42822	1470.34583	179.64775	1636.44214	1345.56116	55.86567	1571.91821	1476.21521	60.87617	1581.79358	1401.00024	35.46601	1423.17175	1405.03833	-2.43019	1110.93103	1411.27661	154.95535	1344.42004	1412.39270	196.03880	1179.05725	1496.37268	-26.76295	1251.15393	1252.65588	124.88910	1376.72595	1184.62964	127.51862	1178.59863	1173.51428	136.93111	1055.86597	1176.34229	164.28947	928.18506	1207.50977	179.19083	809.88379	1152.99878	164.77597	816.05817	1164.06750	178.34923	732.48328	1567.28101	101.40968	1372.36304	1645.41003	106.27540	1152.66736	1660.80212	127.60780	1042.14270	1663.94788	158.25809	908.47186	1628.70813	199.03973	817.60059	1672.17371	167.74991	808.67688	1661.90759	198.59058	740.54010	1295.44580	169.35887	949.48395	1534.48071	156.12463	944.40216	1338.92554	4.89965	972.61420	1487.41150	-1.60755	972.75427	1260.62073	119.54971	647.45117	1304.12903	125.61974	470.33585	1302.16956	78.60888	280.17538	1346.87183	65.23383	70.84246	1381.72961	24.41000	36.16655	1375.66968	217.99492	34.50209	1579.59351	145.69118	647.25629	1562.41528	202.05386	476.38257	1557.26733	67.26387	344.65070	1509.97473	-83.57953	193.64043	1452.10815	-133.07573	196.05180	1505.74158	-12.47513	70.06391				1385.25073	90.52215	1680.98926															 
